<?xml version="1.0"?>
<svg version="1.1" xmlns="http://www.w3.org/2000/svg" width="260px" height="200px" style="border: dashed 2px #aaa"><path fill="#" d="M64.314453125,111.23828125q0,2.70703125-1.9482421875,4.265625t-5.4208984375,1.55859375q-3.19921875,0-5.66015625-1.203125l0-3.9375q2.0234375,0.90234375,3.4248046875,1.271484375t2.5634765625,0.369140625q1.39453125,0,2.1396484375-0.533203125t0.7451171875-1.5859375q0-0.587890625-0.328125-1.0458984375t-0.9638671875-0.8818359375t-2.5908203125-1.353515625q-1.83203125-0.861328125-2.748046875-1.654296875t-1.462890625-1.845703125t-0.546875-2.4609375q0-2.65234375,1.7978515625-4.169921875t4.9697265625-1.517578125q1.55859375,0,2.9736328125,0.369140625t2.9599609375,1.0390625l-1.3671875,3.294921875q-1.599609375-0.65625-2.6455078125-0.916015625t-2.0576171875-0.259765625q-1.203125,0-1.845703125,0.560546875t-0.642578125,1.462890625q0,0.560546875,0.259765625,0.9775390625t0.8271484375,0.806640625t2.6865234375,1.4013671875q2.802734375,1.33984375,3.841796875,2.6865234375t1.0390625,3.3017578125z M75.97341796875,113.740234375q1.09375,0,2.625-0.478515625l0,3.103515625q-1.55859375,0.697265625-3.828125,0.697265625q-2.501953125,0-3.6435546875-1.2646484375t-1.1416015625-3.7939453125l0-7.369140625l-1.99609375,0l0-1.763671875l2.296875-1.39453125l1.203125-3.2265625l2.666015625,0l0,3.25390625l4.279296875,0l0,3.130859375l-4.279296875,0l0,7.369140625q0,0.888671875,0.4990234375,1.3125t1.3193359375,0.423828125z M94.4409765625,116.7890625l-0.560546875-1.955078125l-0.21875,0q-0.669921875,1.06640625-1.900390625,1.6474609375t-2.802734375,0.5810546875q-2.693359375,0-4.060546875-1.4423828125t-1.3671875-4.1494140625l0-9.966796875l4.169921875,0l0,8.927734375q0,1.654296875,0.587890625,2.4814453125t1.873046875,0.8271484375q1.75,0,2.529296875-1.1689453125t0.779296875-3.8759765625l0-7.19140625l4.169921875,0l0,15.28515625l-3.19921875,0z M108.77962890625,117.0625q-2.693359375,0-4.2314453125-2.091796875t-1.5380859375-5.796875q0-3.759765625,1.5654296875-5.8583984375t4.3134765625-2.0986328125q2.884765625,0,4.40234375,2.2421875l0.13671875,0q-0.314453125-1.708984375-0.314453125-3.048828125l0-4.89453125l4.18359375,0l0,21.2734375l-3.19921875,0l-0.806640625-1.982421875l-0.177734375,0q-1.421875,2.255859375-4.333984375,2.255859375z M110.24251953125,113.740234375q1.599609375,0,2.3447265625-0.9296875t0.8134765625-3.158203125l0-0.451171875q0-2.4609375-0.7587890625-3.52734375t-2.4677734375-1.06640625q-1.39453125,0-2.1669921875,1.1826171875t-0.7724609375,3.4384765625t0.779296875,3.3837890625t2.228515625,1.1279296875z M129.913203125,104.18359375q-1.326171875,0-2.078125,0.8408203125t-0.861328125,2.3857421875l5.8515625,0q-0.02734375-1.544921875-0.806640625-2.3857421875t-2.10546875-0.8408203125z M130.50109375,117.0625q-3.69140625,0-5.76953125-2.037109375t-2.078125-5.76953125q0-3.841796875,1.9208984375-5.9404296875t5.3115234375-2.0986328125q3.240234375,0,5.044921875,1.845703125t1.8046875,5.099609375l0,2.0234375l-9.857421875,0q0.068359375,1.77734375,1.052734375,2.775390625t2.76171875,0.998046875q1.380859375,0,2.611328125-0.287109375t2.5703125-0.916015625l0,3.2265625q-1.09375,0.546875-2.337890625,0.8134765625t-3.03515625,0.2666015625z M156.16005859375,116.7890625l-4.169921875,0l0-8.927734375q0-1.654296875-0.587890625-2.4814453125t-1.873046875-0.8271484375q-1.75,0-2.529296875,1.1689453125t-0.779296875,3.8759765625l0,7.19140625l-4.169921875,0l0-15.28515625l3.185546875,0l0.560546875,1.955078125l0.232421875,0q0.697265625-1.107421875,1.9208984375-1.6748046875t2.7822265625-0.5673828125q2.666015625,0,4.046875,1.4423828125t1.380859375,4.1630859375l0,9.966796875z M168.8170703125,113.740234375q1.09375,0,2.625-0.478515625l0,3.103515625q-1.55859375,0.697265625-3.828125,0.697265625q-2.501953125,0-3.6435546875-1.2646484375t-1.1416015625-3.7939453125l0-7.369140625l-1.99609375,0l0-1.763671875l2.296875-1.39453125l1.203125-3.2265625l2.666015625,0l0,3.25390625l4.279296875,0l0,3.130859375l-4.279296875,0l0,7.369140625q0,0.888671875,0.4990234375,1.3125t1.3193359375,0.423828125z M202.566640625,106.603515625q0,4.935546875-2.8095703125,7.560546875t-8.1142578125,2.625l-5.66015625,0l0-19.98828125l6.275390625,0q4.89453125,0,7.6015625,2.583984375t2.70703125,7.21875z M198.164296875,106.712890625q0-6.439453125-5.6875-6.439453125l-2.255859375,0l0,13.015625l1.818359375,0q6.125,0,6.125-6.576171875z M216.83693359375,101.216796875q0.84765625,0,1.408203125,0.123046875l-0.314453125,3.91015625q-0.505859375-0.13671875-1.23046875-0.13671875q-1.99609375,0-3.1103515625,1.025390625t-1.1142578125,2.87109375l0,7.779296875l-4.169921875,0l0-15.28515625l3.158203125,0l0.615234375,2.5703125l0.205078125,0q0.7109375-1.28515625,1.9208984375-2.0712890625t2.6318359375-0.7861328125z M226.2673828125,109.119140625q0,2.26953125,0.7451171875,3.431640625t2.4267578125,1.162109375q1.66796875,0,2.3994140625-1.1552734375t0.7314453125-3.4384765625q0-2.26953125-0.73828125-3.404296875t-2.419921875-1.134765625q-1.66796875,0-2.40625,1.1279296875t-0.73828125,3.4111328125z M236.8357421875,109.119140625q0,3.732421875-1.96875,5.837890625t-5.482421875,2.10546875q-2.201171875,0-3.8828125-0.9638671875t-2.583984375-2.7685546875t-0.90234375-4.2109375q0-3.74609375,1.955078125-5.82421875t5.49609375-2.078125q2.201171875,0,3.8828125,0.95703125t2.583984375,2.748046875t0.90234375,4.197265625z M250.60017578125,117.0625q-2.693359375,0-4.224609375-1.955078125l-0.21875,0q0.21875,1.9140625,0.21875,2.21484375l0,6.193359375l-4.169921875,0l0-22.01171875l3.390625,0l0.587890625,1.982421875l0.19140625,0q1.462890625-2.26953125,4.333984375-2.26953125q2.70703125,0,4.23828125,2.091796875t1.53125,5.810546875q0,2.447265625-0.7177734375,4.251953125t-2.0439453125,2.748046875t-3.1171875,0.943359375z M249.36970703125,104.552734375q-1.544921875,0-2.255859375,0.9501953125t-0.73828125,3.1376953125l0,0.451171875q0,2.4609375,0.7314453125,3.52734375t2.3173828125,1.06640625q2.802734375,0,2.802734375-4.62109375q0-2.255859375-0.6904296875-3.3837890625t-2.1669921875-1.1279296875z M265.17125,109.119140625q0,2.26953125,0.7451171875,3.431640625t2.4267578125,1.162109375q1.66796875,0,2.3994140625-1.1552734375t0.7314453125-3.4384765625q0-2.26953125-0.73828125-3.404296875t-2.419921875-1.134765625q-1.66796875,0-2.40625,1.1279296875t-0.73828125,3.4111328125z M275.739609375,109.119140625q0,3.732421875-1.96875,5.837890625t-5.482421875,2.10546875q-2.201171875,0-3.8828125-0.9638671875t-2.583984375-2.7685546875t-0.90234375-4.2109375q0-3.74609375,1.955078125-5.82421875t5.49609375-2.078125q2.201171875,0,3.8828125,0.95703125t2.583984375,2.748046875t0.90234375,4.197265625z M291.93763671875,116.7890625l-0.560546875-1.955078125l-0.21875,0q-0.669921875,1.06640625-1.900390625,1.6474609375t-2.802734375,0.5810546875q-2.693359375,0-4.060546875-1.4423828125t-1.3671875-4.1494140625l0-9.966796875l4.169921875,0l0,8.927734375q0,1.654296875,0.587890625,2.4814453125t1.873046875,0.8271484375q1.75,0,2.529296875-1.1689453125t0.779296875-3.8759765625l0-7.19140625l4.169921875,0l0,15.28515625l-3.19921875,0z M307.8758984375,113.740234375q1.09375,0,2.625-0.478515625l0,3.103515625q-1.55859375,0.697265625-3.828125,0.697265625q-2.501953125,0-3.6435546875-1.2646484375t-1.1416015625-3.7939453125l0-7.369140625l-1.99609375,0l0-1.763671875l2.296875-1.39453125l1.203125-3.2265625l2.666015625,0l0,3.25390625l4.279296875,0l0,3.130859375l-4.279296875,0l0,7.369140625q0,0.888671875,0.4990234375,1.3125t1.3193359375,0.423828125z M337.2778125,116.7890625l-1.44921875-4.7578125l-7.287109375,0l-1.44921875,4.7578125l-4.56640625,0l7.0546875-20.0703125l5.181640625,0l7.08203125,20.0703125l-4.56640625,0z M334.816875,108.4765625q-2.009765625-6.466796875-2.2626953125-7.314453125t-0.3623046875-1.33984375q-0.451171875,1.75-2.583984375,8.654296875l5.208984375,0z M360.06568359375,116.7890625l-4.169921875,0l0-8.927734375q0-1.654296875-0.587890625-2.4814453125t-1.873046875-0.8271484375q-1.75,0-2.529296875,1.1689453125t-0.779296875,3.8759765625l0,7.19140625l-4.169921875,0l0-15.28515625l3.185546875,0l0.560546875,1.955078125l0.232421875,0q0.697265625-1.107421875,1.9208984375-1.6748046875t2.7822265625-0.5673828125q2.666015625,0,4.046875,1.4423828125t1.380859375,4.1630859375l0,9.966796875z M375.9902734375,116.7890625l-0.806640625-2.078125l-0.109375,0q-1.052734375,1.326171875-2.1669921875,1.8388671875t-2.9052734375,0.5126953125q-2.201171875,0-3.4658203125-1.2578125t-1.2646484375-3.58203125q0-2.43359375,1.7021484375-3.5888671875t5.1337890625-1.2783203125l2.65234375-0.08203125l0-0.669921875q0-2.32421875-2.37890625-2.32421875q-1.83203125,0-4.306640625,1.107421875l-1.380859375-2.81640625q2.638671875-1.380859375,5.8515625-1.380859375q3.076171875,0,4.716796875,1.33984375t1.640625,4.07421875l0,10.185546875l-2.912109375,0z M374.7598046875,109.70703125l-1.61328125,0.0546875q-1.818359375,0.0546875-2.70703125,0.65625t-0.888671875,1.83203125q0,1.763671875,2.0234375,1.763671875q1.44921875,0,2.3173828125-0.833984375t0.8681640625-2.21484375l0-1.2578125z M389.28986328125,116.7890625l-4.169921875,0l0-21.2734375l4.169921875,0l0,21.2734375z M393.401953125,101.50390625l4.56640625,0l2.884765625,8.599609375q0.369140625,1.12109375,0.505859375,2.65234375l0.08203125,0q0.150390625-1.408203125,0.587890625-2.65234375l2.830078125-8.599609375l4.470703125,0l-6.466796875,17.240234375q-0.888671875,2.392578125-2.5361328125,3.58203125t-3.8486328125,1.189453125q-1.080078125,0-2.119140625-0.232421875l0-3.30859375q0.751953125,0.177734375,1.640625,0.177734375q1.107421875,0,1.9345703125-0.6767578125t1.2919921875-2.0439453125l0.24609375-0.751953125z M424.10583984375,112.25q0,2.3515625-1.6337890625,3.58203125t-4.8876953125,1.23046875q-1.66796875,0-2.84375-0.2255859375t-2.201171875-0.6630859375l0-3.4453125q1.162109375,0.546875,2.6181640625,0.916015625t2.5634765625,0.369140625q2.26953125,0,2.26953125-1.3125q0-0.4921875-0.30078125-0.7998046875t-1.0390625-0.697265625t-1.96875-0.9091796875q-1.763671875-0.73828125-2.5908203125-1.3671875t-1.203125-1.4423828125t-0.3759765625-2.0029296875q0-2.037109375,1.5791015625-3.1513671875t4.4775390625-1.1142578125q2.76171875,0,5.373046875,1.203125l-1.2578125,3.0078125q-1.1484375-0.4921875-2.146484375-0.806640625t-2.037109375-0.314453125q-1.845703125,0-1.845703125,0.998046875q0,0.560546875,0.5947265625,0.970703125t2.6044921875,1.216796875q1.791015625,0.724609375,2.625,1.353515625t1.23046875,1.44921875t0.396484375,1.955078125z M435.6144140625,104.18359375q-1.326171875,0-2.078125,0.8408203125t-0.861328125,2.3857421875l5.8515625,0q-0.02734375-1.544921875-0.806640625-2.3857421875t-2.10546875-0.8408203125z M436.2023046875,117.0625q-3.69140625,0-5.76953125-2.037109375t-2.078125-5.76953125q0-3.841796875,1.9208984375-5.9404296875t5.3115234375-2.0986328125q3.240234375,0,5.044921875,1.845703125t1.8046875,5.099609375l0,2.0234375l-9.857421875,0q0.068359375,1.77734375,1.052734375,2.775390625t2.76171875,0.998046875q1.380859375,0,2.611328125-0.287109375t2.5703125-0.916015625l0,3.2265625q-1.09375,0.546875-2.337890625,0.8134765625t-3.03515625,0.2666015625z M456.28314453125,101.216796875q0.84765625,0,1.408203125,0.123046875l-0.314453125,3.91015625q-0.505859375-0.13671875-1.23046875-0.13671875q-1.99609375,0-3.1103515625,1.025390625t-1.1142578125,2.87109375l0,7.779296875l-4.169921875,0l0-15.28515625l3.158203125,0l0.615234375,2.5703125l0.205078125,0q0.7109375-1.28515625,1.9208984375-2.0712890625t2.6318359375-0.7861328125z"/><path fill="#" d=""/></svg>
